<?xml version="1.0" encoding="UTF-8"?>
<!DOCTYPE svg PUBLIC "-//W3C//DTD SVG 1.1//EN" "http://www.w3.org/Graphics/SVG/1.1/DTD/svg11.dtd">
<!-- Creator: CorelDRAW 2018 (64 Bit) -->
<svg xmlns="http://www.w3.org/2000/svg" xml:space="preserve" width="37.9654mm" height="8.4238mm" version="1.1" style="shape-rendering:geometricPrecision; text-rendering:geometricPrecision; image-rendering:optimizeQuality; fill-rule:evenodd; clip-rule:evenodd"
viewBox="0 0 999.34 221.73"
 xmlns:xlink="http://www.w3.org/1999/xlink">
 <defs>
  <style type="text/css">
   <![CDATA[
    .fil1 {fill:#FEFEFE;fill-rule:nonzero}
    .fil0 {fill:#94E17F;fill-rule:nonzero}
   ]]>
  </style>
 </defs>
 <g id="Camada_x0020_1">
  <metadata id="CorelCorpID_0Corel-Layer"/>
  <g id="_2887797894176">
   <path class="fil0" d="M212.43 13.48l-89.43 190.12c-0.47,1 -1.04,4.26 -1.66,9.81 -0.62,5.55 -2.9,8.32 -6.84,8.32 -3.45,0 -3.96,-1.48 -7.9,-4.44 -3.94,-2.96 -5.18,-6.04 -3.7,-9.25 -1.97,-1.73 -1.75,-4.09 0.74,-7.03 4.17,-4.94 6.42,-7.65 6.66,-8.14 10.36,-21.39 1.3,-1.95 18.75,-39.65 6.72,-14.52 21.48,-46.68 44.4,-96.45 6.92,-15.04 13.79,-30.11 20.72,-45.14 1.94,-4.2 4.15,-7.2 6.48,-9.07 5.44,-4.36 8.22,-2.28 10.31,-0.18 1.73,1.73 2.59,4.07 2.59,7.03 0,1.23 -0.41,2.57 -1.11,4.07z"/>
   <path class="fil0" d="M999.34 145.77c0,2.71 -8.57,12.89 -25.72,30.59 -17.14,17.64 -29.79,29.66 -37.93,36.07 -1.73,0 -4.07,-1.36 -7.03,-4.07 -2.96,-2.71 -5.55,-5.92 -7.77,-9.62 0,-1.48 7.65,-9.25 22.94,-23.31 15.29,-14.12 22.94,-23.62 22.94,-28.55 0,-6.41 -9.43,-15.48 -28.3,-27.26 -18.87,-11.72 -28.31,-18.69 -28.31,-20.91 0,-1.48 3.58,-4.81 10.73,-9.99 7.15,-5.18 12.21,-7.83 15.17,-7.83 13.57,12.89 25.16,23.86 34.78,32.99 18.75,18.07 28.24,28.68 28.49,31.88z"/>
   <path class="fil0" d="M-0 145.59c0,-2.71 8.57,-12.89 25.72,-30.59 17.14,-17.64 29.79,-29.66 37.93,-36.14 1.73,0 4.07,1.42 7.03,4.13 2.96,2.71 5.55,5.92 7.77,9.62 0,1.48 -7.65,9.25 -22.94,23.31 -15.29,14.12 -22.94,23.62 -22.94,28.55 0,6.41 9.43,15.48 28.3,27.26 18.87,11.72 28.31,18.69 28.31,20.91 0,1.48 -3.58,4.81 -10.73,9.99 -7.15,5.18 -12.21,7.77 -15.17,7.77 -13.57,-12.83 -25.16,-23.8 -34.78,-32.93 -18.75,-18.07 -28.24,-28.68 -28.49,-31.88z"/>
   <path class="fil1" d="M613.5 28.3c-6.62,0 -11.74,2.26 -15.35,6.77 -3.61,4.51 -5.42,10.78 -5.42,18.81l0 23.18 38.23 0 -3.31 25.59 -34.92 0 0 107.76 -32.51 0 0 -107.76 -22.27 0 0 -25.59 22.27 0 0 -22.57c0,-10.44 1.96,-19.67 5.87,-27.69 3.91,-8.03 9.68,-14.3 17.31,-18.81 7.63,-4.52 16.76,-6.77 27.39,-6.77 11.84,0 22.48,1.91 31.91,5.72l-8.13 25.59c-6.82,-2.81 -13.85,-4.21 -21.07,-4.21z"/>
   <polygon class="fil1" points="657.69,210.41 657.69,3.31 690.2,0 690.2,210.41 "/>
   <path class="fil1" d="M726.87 52.98c-3.81,0 -7.38,-0.95 -10.69,-2.86 -3.31,-1.91 -5.97,-4.51 -7.98,-7.83 -2.01,-3.31 -3.01,-6.87 -3.01,-10.68 0,-3.81 1.01,-7.38 3.01,-10.69 2.01,-3.31 4.66,-5.97 7.98,-7.98 3.31,-2.01 6.87,-3.01 10.69,-3.01 4.01,0 7.73,1 11.14,3.01 3.41,2.01 6.12,4.67 8.13,7.98 2.01,3.31 3.01,6.87 3.01,10.69 0,3.81 -1,7.37 -3.01,10.68 -2.01,3.31 -4.72,5.92 -8.13,7.83 -3.41,1.91 -7.12,2.86 -11.14,2.86zm-15.65 157.43l0 -133.05 32.51 -3.31 0 136.36 -32.51 0z"/>
   <polygon class="fil1" points="852.04,141.17 898.39,208.3 898.39,210.41 860.47,210.41 830.97,162.55 798.76,210.41 764.14,210.41 764.14,208.3 811.4,141.78 766.85,78.86 766.85,77.06 804.18,77.06 832.47,120.71 861.07,77.06 894.78,77.06 894.78,78.86 "/>
   <path class="fil0" d="M273.17 33.72c-6.29,0 -11.15,2.14 -14.58,6.43 -3.43,4.29 -5.15,10.25 -5.15,17.87l0 22.02 36.31 0 -3.15 24.3 -33.17 0 0 102.36 -30.88 0 0 -102.36 -21.16 0 0 -24.3 21.16 0 0 -21.44c0,-9.91 1.86,-18.68 5.58,-26.3 3.72,-7.62 9.2,-13.58 16.44,-17.87 7.24,-4.29 15.91,-6.43 26.02,-6.43 11.25,0 21.35,1.81 30.31,5.43l-7.72 24.3c-6.48,-2.67 -13.15,-4 -20.01,-4z"/>
   <path class="fil0" d="M355.35 210.41c-13.72,0 -25.26,-3 -34.6,-9 -9.34,-6 -16.35,-14.11 -21.02,-24.3 -4.67,-10.2 -7,-21.59 -7,-34.17 0,-15.82 3,-28.69 9.01,-38.6 6,-9.91 14.06,-17.11 24.16,-21.58 10.1,-4.48 21.44,-6.72 34.02,-6.72 13.91,0 25.54,2.91 34.88,8.72 9.34,5.81 16.34,13.77 21.02,23.87 4.67,10.1 7,21.63 7,34.6 0,15.63 -3,28.45 -9.01,38.45 -6,10.01 -14.06,17.3 -24.16,21.87 -10.1,4.57 -21.54,6.86 -34.31,6.86zm2.43 -24.02c11.87,0 20.35,-3.86 25.4,-11.58 5.1,-7.72 7.62,-18.35 7.62,-31.88 0,-13.53 -2.62,-24.06 -7.91,-31.59 -5.24,-7.53 -13.34,-11.29 -24.25,-11.29 -12.06,0 -20.73,3.72 -25.97,11.15 -5.29,7.43 -7.91,18.01 -7.91,31.74 0,13.34 2.72,23.92 8.2,31.74 5.43,7.82 13.72,11.72 24.83,11.72z"/>
   <path class="fil0" d="M505.55 76.03c5.34,0 10.86,0.86 16.58,2.57l-5.15 31.45c-3.05,-1.15 -5.91,-2 -8.58,-2.57 -2.67,-0.57 -5.62,-0.86 -8.86,-0.86 -5.53,0 -10.72,1.24 -15.58,3.72 -4.86,2.48 -9.67,7.15 -14.44,14.01l0 82.34 -30.88 0 0 -126.66 30.88 -2.86 0 18.01c4.57,-6.29 9.96,-11.06 16.15,-14.3 6.19,-3.24 12.82,-4.86 19.87,-4.86z"/>
  </g>
 </g>
</svg>
