<?xml version="1.0" encoding="UTF-8"?>
<!DOCTYPE svg PUBLIC "-//W3C//DTD SVG 1.1//EN" "http://www.w3.org/Graphics/SVG/1.1/DTD/svg11.dtd">
<!-- Creator: CorelDRAW 2018 (64 Bit) -->
<svg xmlns="http://www.w3.org/2000/svg" xml:space="preserve" width="74.5315mm" height="22.3528mm" version="1.1" style="shape-rendering:geometricPrecision; text-rendering:geometricPrecision; image-rendering:optimizeQuality; fill-rule:evenodd; clip-rule:evenodd"
viewBox="0 0 11507.97 3451.37"
 xmlns:xlink="http://www.w3.org/1999/xlink">
 <defs>
  <style type="text/css">
   <![CDATA[
    .fil3 {fill:#FEFEFE}
    .fil2 {fill:#94E17F}
    .fil0 {fill:#FEFEFE;fill-rule:nonzero}
    .fil1 {fill:#94E17F;fill-rule:nonzero}
   ]]>
  </style>
 </defs>
 <g id="Camada_x0020_1">
  <metadata id="CorelCorpID_0Corel-Layer"/>
  <g id="_1572595770688">
   <path class="fil0" d="M7148.63 51.15l515.82 0.02 0 2515.38 848.79 73.06 0 429.38 -196.34 -12.86c-382.4,-39.65 -772.27,-73.31 -1168.27,-100.89l0 -2904.09z"/>
   <polygon class="fil1" points="-0,51.15 1364.64,51.15 1364.64,497.51 515.85,497.51 515.85,1476.83 1181.75,1476.83 1181.75,1923.18 515.85,1923.18 515.85,3356.04 -0,3451.37 "/>
   <path class="fil1" d="M2473.88 3148.01c-253.22,18.71 -447.06,-33.6 -581.49,-156.95 -134.42,-123.35 -201.65,-306.72 -201.65,-550.11l0 -1599.41c0,-243.39 67.23,-436.69 201.65,-579.91 134.42,-143.21 328.26,-224.18 581.49,-242.89 253.24,-18.73 447.05,33.6 581.49,156.94 134.44,123.35 201.65,306.72 201.65,550.11l0 1599.41c0,243.39 -67.21,436.69 -201.65,579.91 -134.44,143.23 -328.25,224.18 -581.49,242.91zm0 -434.62c178.2,-13.17 267.29,-119.74 267.29,-319.66l0 -1660.25c0,-199.94 -89.09,-293.31 -267.29,-280.14 -178.21,13.17 -267.3,119.71 -267.3,319.65l0 1660.25c0,199.92 89.09,293.32 267.3,280.15z"/>
   <path class="fil2" d="M3583.12 51.17l764.36 0c265.74,0 459.55,56.54 581.5,169.61 121.92,113.07 182.89,286.98 182.89,521.7l0 184.64c0,312.04 -112.56,509.55 -337.65,592.56l0 8.6c125.05,34.34 213.37,104.47 264.96,210.39 51.57,105.92 77.37,247.62 77.37,425.09l0 528.15c0,85.88 3.12,155.3 9.37,208.26 1.47,12.34 3.43,24.64 5.9,36.89 -172.89,4.88 -344.66,10.93 -515.22,18.22 -2.64,-12.14 -4.8,-24.07 -6.52,-35.79 -6.25,-42.94 -9.39,-120.23 -9.39,-231.87l0 -549.62c0,-137.4 -24.23,-233.3 -72.68,-287.69 -48.45,-54.4 -132.08,-81.59 -250.88,-81.59l-178.21 0 0 1212.44c-173.3,10.01 -345.37,21.12 -515.82,33.58l0 -2963.59zm703.4 1288.16c103.17,0 180.54,-24.32 232.13,-72.99 51.59,-48.67 77.37,-130.26 77.37,-244.76l0 -231.87c0,-108.78 -21.11,-187.49 -63.31,-236.16 -42.21,-48.67 -108.65,-72.99 -199.3,-72.99l-234.48 0 0 858.76 187.59 0z"/>
   <path class="fil3" d="M5457.92 51.17l1364.61 0 0 429.4 -848.79 0 0 837.3 665.91 0 0 429.38 -665.91 0 0 1175.82c-172.9,0.79 -344.86,2.76 -515.82,5.96l0 -2877.86z"/>
   <path class="fil3" d="M8839.34 51.15l515.82 0 0 3070.09c-170.4,-20.37 -342.3,-39.65 -515.82,-57.65l0 -3012.44z"/>
   <path class="fil0" d="M10269.22 1671.19l-587.91 -1620.83 539.89 1.9 371.59 1111.35 9.37 0.31 397.27 -1113.56 496.19 0 -616.78 1640.03 629.14 1751.65c-187.57,-35.99 -378.34,-70.38 -571.73,-103.31l-380.98 -1149.69 -9.37 -0.29 -368.13 1031.02c-154.68,-22.27 -310.78,-43.62 -468.48,-63.88l559.93 -1484.7z"/>
  </g>
 </g>
</svg>
