<?xml version="1.0" encoding="UTF-8"?>
<!DOCTYPE svg PUBLIC "-//W3C//DTD SVG 1.1//EN" "http://www.w3.org/Graphics/SVG/1.1/DTD/svg11.dtd">
<!-- Creator: CorelDRAW 2018 (64 Bit) -->
<svg xmlns="http://www.w3.org/2000/svg" xml:space="preserve" width="95.662mm" height="22.6327mm" version="1.1" style="shape-rendering:geometricPrecision; text-rendering:geometricPrecision; image-rendering:optimizeQuality; fill-rule:evenodd; clip-rule:evenodd"
viewBox="0 0 5836.37 1380.83"
 xmlns:xlink="http://www.w3.org/1999/xlink">
 <defs>
  <style type="text/css">
   <![CDATA[
    .fil1 {fill:#FEFEFE;fill-rule:nonzero}
    .fil0 {fill:#94E17F;fill-rule:nonzero}
   ]]>
  </style>
 </defs>
 <g id="Camada_x0020_1">
  <metadata id="CorelCorpID_0Corel-Layer"/>
  <g id="_2242805765504">
   <path class="fil0" d="M5836.37 947.5c0,17.64 -55.72,83.78 -167.16,198.82 -111.44,114.64 -193.61,192.82 -246.52,234.51 -11.23,0 -26.45,-8.82 -45.7,-26.46 -19.24,-17.64 -36.08,-38.48 -50.51,-62.53 0,-9.62 49.71,-60.13 149.12,-151.53 99.41,-91.8 149.12,-153.53 149.12,-185.6 0,-41.69 -61.33,-100.61 -183.99,-177.17 -122.66,-76.17 -183.99,-121.46 -183.99,-135.89 0,-9.62 23.25,-31.27 69.75,-64.94 46.5,-33.67 79.37,-50.91 98.61,-50.91 88.19,83.78 163.55,155.13 226.09,214.46 121.86,117.45 183.59,186.4 185.2,207.25z"/>
   <path class="fil0" d="M-0 946.37c0,-17.64 55.72,-83.78 167.16,-198.83 111.44,-114.64 193.61,-192.81 246.52,-234.9 11.23,0 26.45,9.22 45.7,26.86 19.24,17.64 36.08,38.49 50.51,62.54 0,9.62 -49.71,60.13 -149.12,151.53 -99.41,91.8 -149.12,153.53 -149.12,185.59 0,41.69 61.33,100.62 183.99,177.18 122.66,76.16 183.99,121.46 183.99,135.89 0,9.62 -23.25,31.27 -69.75,64.94 -46.5,33.67 -79.37,50.51 -98.61,50.51 -88.19,-83.38 -163.55,-154.73 -226.09,-214.06 -121.86,-117.45 -183.59,-186.4 -185.2,-207.24z"/>
   <path class="fil1" d="M3328.36 183.92c-43.05,0 -76.31,14.67 -99.79,44.02 -23.48,29.35 -35.22,70.11 -35.22,122.29l0 150.66 248.49 0 -21.52 166.31 -226.96 0 0 700.47 -211.31 0 0 -700.47 -144.79 0 0 -166.31 144.79 0 0 -146.75c0,-67.83 12.71,-127.83 38.15,-180 25.44,-52.18 62.94,-92.94 112.51,-122.29 49.56,-29.35 108.92,-44.02 178.05,-44.02 76.96,0 146.1,12.39 207.4,37.17l-52.82 166.31c-44.35,-18.26 -90.01,-27.39 -136.96,-27.39z"/>
   <polygon class="fil1" points="3615.62,1367.66 3615.62,21.52 3826.94,0 3826.94,1367.66 "/>
   <path class="fil1" d="M4065.29 344.36c-24.79,0 -47.94,-6.2 -69.46,-18.59 -21.52,-12.39 -38.81,-29.35 -51.85,-50.87 -13.04,-21.52 -19.57,-44.68 -19.57,-69.46 0,-24.78 6.52,-47.94 19.57,-69.46 13.04,-21.52 30.33,-38.8 51.85,-51.85 21.52,-13.04 44.67,-19.57 69.46,-19.57 26.09,0 50.22,6.52 72.39,19.57 22.18,13.04 39.78,30.33 52.83,51.85 13.04,21.52 19.57,44.68 19.57,69.46 0,24.78 -6.52,47.94 -19.57,69.46 -13.04,21.52 -30.65,38.48 -52.83,50.87 -22.17,12.39 -46.3,18.59 -72.39,18.59zm-101.75 1023.3l0 -864.82 211.32 -21.52 0 886.34 -211.32 0z"/>
   <polygon class="fil1" points="4878.88,917.64 5180.2,1353.97 5180.2,1367.66 4933.66,1367.66 4741.92,1056.56 4532.56,1367.66 4307.55,1367.66 4307.55,1353.97 4614.74,921.55 4325.16,512.63 4325.16,500.89 4567.78,500.89 4751.7,784.59 4937.58,500.89 5156.72,500.89 5156.72,512.63 "/>
   <path class="fil0" d="M1116.15 219.14c-40.89,0 -72.48,13.93 -94.79,41.81 -22.3,27.88 -33.45,66.6 -33.45,116.16l0 143.1 236.02 0 -20.44 157.97 -215.58 0 0 665.33 -200.71 0 0 -665.33 -137.53 0 0 -157.97 137.53 0 0 -139.38c0,-64.43 12.08,-121.42 36.24,-170.98 24.16,-49.56 59.78,-88.28 106.86,-116.15 47.08,-27.88 103.46,-41.82 169.12,-41.82 73.1,0 138.77,11.77 197,35.31l-50.17 157.97c-42.13,-17.35 -85.49,-26.01 -130.09,-26.01z"/>
   <path class="fil0" d="M1650.35 1367.66c-89.2,0 -164.16,-19.51 -224.87,-58.54 -60.71,-39.03 -106.24,-91.69 -136.6,-157.97 -30.35,-66.28 -45.53,-140.31 -45.53,-222.08 0,-102.83 19.51,-186.47 58.54,-250.89 39.03,-64.43 91.38,-111.2 157.04,-140.31 65.67,-29.11 139.38,-43.68 221.16,-43.68 90.45,0 166.02,18.89 226.73,56.68 60.71,37.79 106.24,89.51 136.6,155.18 30.36,65.67 45.53,140.63 45.53,224.88 0,101.59 -19.51,184.92 -58.54,249.96 -39.03,65.05 -91.38,112.44 -157.04,142.17 -65.67,29.74 -140.01,44.6 -223.02,44.6zm15.8 -156.11c77.12,0 132.26,-25.09 165.09,-75.26 33.15,-50.18 49.56,-119.26 49.56,-207.22 0,-87.96 -17.03,-156.42 -51.41,-205.36 -34.07,-48.94 -86.73,-73.41 -157.66,-73.41 -78.36,0 -134.74,24.16 -168.81,72.48 -34.38,48.32 -51.41,117.08 -51.41,206.29 0,86.73 17.65,155.49 53.27,206.29 35.31,50.8 89.2,76.2 161.38,76.2z"/>
   <path class="fil0" d="M2626.64 494.18c34.69,0 70.63,5.58 107.79,16.73l-33.45 204.43c-19.82,-7.43 -38.41,-13.01 -55.76,-16.72 -17.35,-3.72 -36.55,-5.58 -57.61,-5.58 -35.93,0 -69.69,8.05 -101.28,24.16 -31.6,16.11 -62.88,46.46 -93.85,91.06l0 535.24 -200.71 0 0 -823.3 200.71 -18.58 0 117.08c29.74,-40.89 64.74,-71.86 105,-92.92 40.26,-21.06 83.32,-31.6 129.16,-31.6z"/>
  </g>
 </g>
</svg>
